<svg id="Layer_1" data-name="Layer 1" xmlns="http://www.w3.org/2000/svg" xmlns:xlink="http://www.w3.org/1999/xlink" viewBox="0 0 500 500">
	<defs>
		<style>.cls-1{fill:url(#Gold_Eaciit);}.cls-2{fill:url(#linear-gradient);}.cls-3{fill:url(#Gold_Eaciit-2);}.cls-4{fill:url(#linear-gradient-2);}.cls-5{fill:url(#linear-gradient-3);}.cls-6{fill:url(#linear-gradient-4);}.cls-7,.cls-8{fill:none;}.cls-7{stroke:#f7941e;stroke-miterlimit:10;stroke-width:3px;}</style>
		<linearGradient id="Gold_Eaciit" x1="556.31" y1="400.9" x2="664.4" y2="588.11" gradientTransform="translate(-335.16 -319.58)" gradientUnits="userSpaceOnUse">
			<stop offset="0" stop-color="#ca9830"/>
			<stop offset="0.19" stop-color="#d9aa4a"/>
			<stop offset="0.31" stop-color="#f0d592"/>
			<stop offset="0.44" stop-color="#fdf4c6"/>
			<stop offset="0.59" stop-color="#f0d592"/>
			<stop offset="0.76" stop-color="#d9aa4a"/>
			<stop offset="1" stop-color="#c9972f"/>
		</linearGradient>
		<linearGradient id="linear-gradient" x1="565.54" y1="262.35" x2="780.88" y2="262.35" gradientTransform="matrix(-0.5, 0.87, -0.87, -0.5, 893.67, -216.81)" gradientUnits="userSpaceOnUse">
			<stop offset="0" stop-color="#e75525"/>
			<stop offset="0.27" stop-color="#ed683c"/>
			<stop offset="0.53" stop-color="#f3903f"/>
			<stop offset="0.77" stop-color="#fdc70c"/>
			<stop offset="1" stop-color="#fff33b"/>
		</linearGradient>
		<linearGradient id="Gold_Eaciit-2" x1="190.93" y1="-101.64" x2="299.02" y2="85.57" gradientTransform="translate(418.97 92.56) rotate(120)" xlink:href="#Gold_Eaciit"/>
		<linearGradient id="linear-gradient-2" x1="5.58" y1="347.71" x2="220.92" y2="347.71" gradientTransform="translate(-19.26 597.34) rotate(-120)" xlink:href="#linear-gradient"/>
		<linearGradient id="linear-gradient-3" x1="-214.85" y1="273.63" x2="-106.76" y2="460.84" gradientTransform="matrix(-0.5, -0.87, 0.87, -0.5, -226.96, 308.2)" xlink:href="#Gold_Eaciit"/>
		<linearGradient id="linear-gradient-4" x1="60.91" y1="241.99" x2="288.3" y2="110.7" gradientUnits="userSpaceOnUse">
			<stop offset="0" stop-color="#e75525"/>
			<stop offset="0.33" stop-color="#ed683c"/>
			<stop offset="0.6" stop-color="#f3903f"/>
			<stop offset="0.77" stop-color="#fdc70c"/>
			<stop offset="1" stop-color="#fff33b"/>
		</linearGradient>
	</defs>
	<title>Untitled-2</title>

	<path class="cls-1" d="M248.7,73.28c17,0,39.19,15.08,39.19,15.08l84.88,51.57V243.4S326.41,215.65,205,143c-40.48-24.53-72-10.22-72-10.22l75.28-43.81S231.67,73.28,248.7,73.28Z">
		<animateTransform
			attributeName="transform"
			attributeType="XML"
			type="rotate"
			dur="2s"
			from="0 250 250"
			to="360 250 250"
			repeatCount="indefinite" />
	</path>
	<path class="cls-2" d="M404,160.8c8.69,14.58,7.12,41.38,7.12,41.38l-0.81,99.31-88.86,53s0.09-54,.34-195.53c0.33-47.34-28.08-67-28.08-67l76.18,42.22S395.26,146.17,404,160.8Z">
		<animateTransform
			attributeName="transform"
			attributeType="XML"
			type="rotate"
			dur="2s"
			from="0 250 250"
			to="360 250 250"
			repeatCount="indefinite" />
	</path>
	<path class="cls-3" d="M404.71,336.61c-8.49,14.7-32.65,26.39-32.65,26.39L285,410.73,195.35,359s47.21-26.28,170.87-95.06C407.71,241.14,411,206.73,411,206.73l0.3,87.1S413.23,321.86,404.71,336.61Z">
		<animateTransform
			attributeName="transform"
			attributeType="XML"
			type="rotate"
			dur="2s"
			from="0 250 250"
			to="360 250 250"
			repeatCount="indefinite" />
	</path>
	<path class="cls-4" d="M252.47,426.72c-17,.24-39.39-14.53-39.39-14.53l-85.6-50.36L126,258.37s46.75,27.09,169.16,98.06c40.83,24,72.09,9.2,72.09,9.2L292.61,410.5S269.5,426.48,252.47,426.72Z">
		<animateTransform
			attributeName="transform"
			attributeType="XML"
			type="rotate"
			dur="2s"
			from="0 250 250"
			to="360 250 250"
			repeatCount="indefinite" />
	</path>
	<path class="cls-5" d="M96.7,337.61c-8.49-14.7-6.53-41.48-6.53-41.48l2.22-99.29L182,145.11s-0.85,54-3.11,195.51C177.88,387.94,206,408,206,408l-75.58-43.29S105.21,352.36,96.7,337.61Z">
		<animateTransform
			attributeName="transform"
			attributeType="XML"
			type="rotate"
			dur="2s"
			from="0 250 250"
			to="360 250 250"
			repeatCount="indefinite" />
	</path>
	<path class="cls-6" d="M133,132.75l3.54-2.06-9.49,5.38s-24,12-32.28,26.85-6,42.88-6,42.88l1.53,87.08s2.85-34.46,44-57.84l114.5-65.83L205,143C164.49,118.44,133,132.75,133,132.75Z">
		<animateTransform
			attributeName="transform"
			attributeType="XML"
			type="rotate"
			dur="2s"
			from="0 250 250"
			to="360 250 250"
			repeatCount="indefinite" />
	</path>
	<!-- CIRCLE -->
	<!-- <path class="cls-7" d="M344.23,43.57A227.56,227.56,0,1,1,249.64,23">
		<animateTransform
			attributeName="transform"
			attributeType="XML"
			type="rotate"
			dur="2s"
			from="0 250 250"
			to="360 250 250"
			repeatCount="indefinite" />
	</path> -->
	<rect class="cls-8" width="500" height="500"/>
</svg>